<svg xmlns="http://www.w3.org/2000/svg" xmlns:xlink="http://www.w3.org/1999/xlink" width="600" zoomAndPan="magnify" viewBox="0 0 450 89.999999" height="120" preserveAspectRatio="xMidYMid meet" version="1.0"><defs><g/><clipPath id="e5c82afe4d"><path d="M 3.996094 0 L 446.238281 0 L 446.238281 90 L 3.996094 90 Z M 3.996094 0 " clip-rule="nonzero"/></clipPath><clipPath id="820dac8aca"><path d="M 6.996094 0 L 443.140625 0 C 444.796875 0 446.140625 1.34375 446.140625 3 L 446.140625 87 C 446.140625 88.65625 444.796875 90 443.140625 90 L 6.996094 90 C 5.339844 90 3.996094 88.65625 3.996094 87 L 3.996094 3 C 3.996094 1.34375 5.339844 0 6.996094 0 " clip-rule="nonzero"/></clipPath><clipPath id="86055c42af"><path d="M 27 27 L 63.515625 27 L 63.515625 63.414062 L 27 63.414062 Z M 27 27 " clip-rule="nonzero"/></clipPath></defs><g clip-path="url(#e5c82afe4d)"><g clip-path="url(#820dac8aca)"><path fill="#3d1050" d="M 3.996094 0 L 446.101562 0 L 446.101562 90.003906 L 3.996094 90.003906 Z M 3.996094 0 " fill-opacity="1" fill-rule="nonzero"/></g></g><g clip-path="url(#86055c42af)"><path fill="#ffffff" d="M 34.097656 56.796875 L 34.515625 57.210938 L 34.554688 57.25 C 35.851562 58.59375 35.835938 60.753906 34.515625 62.074219 C 33.191406 63.398438 31.03125 63.410156 29.691406 62.117188 L 29.648438 62.074219 L 29.234375 61.664062 L 28.101562 60.527344 C 26.765625 59.1875 26.765625 57 28.101562 55.660156 C 29.4375 54.324219 31.628906 54.324219 32.964844 55.660156 Z M 57.039062 37.972656 L 57.441406 37.570312 L 57.90625 37.109375 L 62.144531 32.867188 C 63.480469 31.53125 63.480469 29.34375 62.144531 28 C 60.804688 26.664062 58.617188 26.664062 57.28125 28 L 53.042969 32.242188 L 52.578125 32.703125 L 52.175781 33.105469 L 49.746094 35.539062 C 48.410156 36.875 48.410156 39.0625 49.746094 40.40625 L 52.175781 42.839844 L 52.613281 43.269531 L 57.3125 47.972656 C 58.648438 49.308594 60.835938 49.308594 62.179688 47.972656 C 63.515625 46.636719 63.515625 44.441406 62.179688 43.105469 L 57.476562 38.402344 Z M 28.292969 28.03125 L 28.292969 28.027344 C 29.632812 26.691406 31.824219 26.691406 33.160156 28.027344 L 62.113281 56.996094 C 63.453125 58.332031 63.453125 60.527344 62.113281 61.863281 C 60.777344 63.199219 58.589844 63.199219 57.25 61.863281 L 28.292969 32.894531 C 26.957031 31.558594 26.957031 29.371094 28.292969 28.03125 Z M 28.253906 41.898438 C 29.589844 40.5625 31.777344 40.5625 33.117188 41.898438 L 36.414062 45.195312 L 43.546875 52.335938 L 48.25 57.039062 C 49.585938 58.375 49.585938 60.566406 48.25 61.902344 C 46.910156 63.242188 44.722656 63.242188 43.386719 61.902344 L 38.683594 57.199219 L 31.550781 50.0625 L 28.253906 46.765625 C 26.917969 45.429688 26.917969 43.234375 28.253906 41.898438 Z M 28.253906 41.898438 " fill-opacity="1" fill-rule="evenodd"/></g><g fill="#ff00ff" fill-opacity="1"><g transform="translate(72.653619, 58.331168)"><g><path d="M 3.078125 0 L 3.078125 -29.1875 L 7.171875 -29.1875 L 17.671875 -8.84375 L 28.09375 -29.1875 L 32.21875 -29.1875 L 32.21875 0 L 28.71875 0 L 28.71875 -22.921875 L 18.96875 -4.171875 L 16.34375 -4.171875 L 6.59375 -22.890625 L 6.59375 0 Z M 3.078125 0 "/></g></g></g><g fill="#ff00ff" fill-opacity="1"><g transform="translate(111.666045, 58.331168)"><g><path d="M 3.078125 0 L 3.078125 -29.1875 L 6.59375 -29.1875 L 6.59375 0 Z M 3.078125 0 "/></g></g></g><g fill="#ff00ff" fill-opacity="1"><g transform="translate(125.046037, 58.331168)"><g><path d="M 9.921875 0 L 9.921875 -26.3125 L 1.203125 -26.3125 L 1.203125 -29.1875 L 22.140625 -29.1875 L 22.140625 -26.3125 L 13.421875 -26.3125 L 13.421875 0 Z M 9.921875 0 "/></g></g></g><g fill="#ff00ff" fill-opacity="1"><g transform="translate(152.096659, 58.331168)"><g><path d="M 15.890625 0.5 C 13.023438 0.5 10.554688 -0.128906 8.484375 -1.390625 C 6.410156 -2.660156 4.800781 -4.425781 3.65625 -6.6875 C 2.519531 -8.957031 1.953125 -11.59375 1.953125 -14.59375 C 1.953125 -17.5625 2.519531 -20.175781 3.65625 -22.4375 C 4.800781 -24.707031 6.410156 -26.484375 8.484375 -27.765625 C 10.554688 -29.046875 13.023438 -29.6875 15.890625 -29.6875 C 19.222656 -29.6875 21.9375 -28.882812 24.03125 -27.28125 C 26.132812 -25.6875 27.476562 -23.457031 28.0625 -20.59375 L 24.171875 -20.59375 C 23.734375 -22.394531 22.828125 -23.84375 21.453125 -24.9375 C 20.078125 -26.039062 18.222656 -26.59375 15.890625 -26.59375 C 13.796875 -26.59375 11.972656 -26.113281 10.421875 -25.15625 C 8.867188 -24.195312 7.664062 -22.820312 6.8125 -21.03125 C 5.96875 -19.238281 5.546875 -17.09375 5.546875 -14.59375 C 5.546875 -12.09375 5.96875 -9.945312 6.8125 -8.15625 C 7.664062 -6.363281 8.867188 -4.984375 10.421875 -4.015625 C 11.972656 -3.054688 13.796875 -2.578125 15.890625 -2.578125 C 18.222656 -2.578125 20.078125 -3.113281 21.453125 -4.1875 C 22.828125 -5.257812 23.734375 -6.6875 24.171875 -8.46875 L 28.0625 -8.46875 C 27.476562 -5.65625 26.132812 -3.457031 24.03125 -1.875 C 21.9375 -0.289062 19.222656 0.5 15.890625 0.5 Z M 15.890625 0.5 "/></g></g></g><g fill="#ff00ff" fill-opacity="1"><g transform="translate(185.815877, 58.331168)"><g><path d="M 3.078125 0 L 3.078125 -29.1875 L 6.59375 -29.1875 L 6.59375 -16.296875 L 21.71875 -16.296875 L 21.71875 -29.1875 L 25.21875 -29.1875 L 25.21875 0 L 21.71875 0 L 21.71875 -13.421875 L 6.59375 -13.421875 L 6.59375 0 Z M 3.078125 0 "/></g></g></g><g fill="#ff00ff" fill-opacity="1"><g transform="translate(217.826262, 58.331168)"><g><path d="M 3.078125 0 L 3.078125 -29.1875 L 21.140625 -29.1875 L 21.140625 -26.3125 L 6.59375 -26.3125 L 6.59375 -16.140625 L 19.890625 -16.140625 L 19.890625 -13.296875 L 6.59375 -13.296875 L 6.59375 -2.875 L 21.140625 -2.875 L 21.140625 0 Z M 3.078125 0 "/></g></g></g><g fill="#ff00ff" fill-opacity="1"><g transform="translate(245.04359, 58.331168)"><g><path d="M 3.078125 0 L 3.078125 -29.1875 L 6.59375 -29.1875 L 6.59375 -2.796875 L 20.171875 -2.796875 L 20.171875 0 Z M 3.078125 0 "/></g></g></g><g fill="#ff00ff" fill-opacity="1"><g transform="translate(270.635451, 58.331168)"><g><path d="M 3.078125 0 L 3.078125 -29.1875 L 6.59375 -29.1875 L 6.59375 -2.796875 L 20.171875 -2.796875 L 20.171875 0 Z M 3.078125 0 "/></g></g></g><g fill="#ff00ff" fill-opacity="1"><g transform="translate(296.227312, 58.331168)"><g/></g></g><g fill="#ff00ff" fill-opacity="1"><g transform="translate(310.982703, 58.331168)"><g><path d="M 3.078125 0 L 3.078125 -29.1875 L 6.59375 -29.1875 L 6.59375 -16.296875 L 21.71875 -16.296875 L 21.71875 -29.1875 L 25.21875 -29.1875 L 25.21875 0 L 21.71875 0 L 21.71875 -13.421875 L 6.59375 -13.421875 L 6.59375 0 Z M 3.078125 0 "/></g></g></g><g fill="#ff00ff" fill-opacity="1"><g transform="translate(342.993087, 58.331168)"><g><path d="M 16.34375 0.5 C 13.476562 0.5 10.96875 -0.128906 8.8125 -1.390625 C 6.664062 -2.660156 4.984375 -4.429688 3.765625 -6.703125 C 2.554688 -8.984375 1.953125 -11.613281 1.953125 -14.59375 C 1.953125 -17.5625 2.554688 -20.175781 3.765625 -22.4375 C 4.984375 -24.707031 6.664062 -26.484375 8.8125 -27.765625 C 10.96875 -29.046875 13.476562 -29.6875 16.34375 -29.6875 C 19.226562 -29.6875 21.75 -29.046875 23.90625 -27.765625 C 26.0625 -26.484375 27.734375 -24.707031 28.921875 -22.4375 C 30.117188 -20.175781 30.71875 -17.5625 30.71875 -14.59375 C 30.71875 -11.613281 30.117188 -8.984375 28.921875 -6.703125 C 27.734375 -4.429688 26.0625 -2.660156 23.90625 -1.390625 C 21.75 -0.128906 19.226562 0.5 16.34375 0.5 Z M 16.34375 -2.578125 C 18.476562 -2.578125 20.359375 -3.054688 21.984375 -4.015625 C 23.609375 -4.984375 24.875 -6.363281 25.78125 -8.15625 C 26.6875 -9.945312 27.140625 -12.09375 27.140625 -14.59375 C 27.140625 -17.09375 26.6875 -19.226562 25.78125 -21 C 24.875 -22.78125 23.609375 -24.148438 21.984375 -25.109375 C 20.359375 -26.078125 18.476562 -26.5625 16.34375 -26.5625 C 14.195312 -26.5625 12.3125 -26.078125 10.6875 -25.109375 C 9.0625 -24.148438 7.796875 -22.78125 6.890625 -21 C 5.992188 -19.226562 5.546875 -17.09375 5.546875 -14.59375 C 5.546875 -12.09375 5.992188 -9.945312 6.890625 -8.15625 C 7.796875 -6.363281 9.0625 -4.984375 10.6875 -4.015625 C 12.3125 -3.054688 14.195312 -2.578125 16.34375 -2.578125 Z M 16.34375 -2.578125 "/></g></g></g><g fill="#ff00ff" fill-opacity="1"><g transform="translate(379.379745, 58.331168)"><g><path d="M 3.078125 0 L 3.078125 -29.1875 L 7.171875 -29.1875 L 17.671875 -8.84375 L 28.09375 -29.1875 L 32.21875 -29.1875 L 32.21875 0 L 28.71875 0 L 28.71875 -22.921875 L 18.96875 -4.171875 L 16.34375 -4.171875 L 6.59375 -22.890625 L 6.59375 0 Z M 3.078125 0 "/></g></g></g><g fill="#00ffff" fill-opacity="1"><g transform="translate(71.871905, 58.331168)"><g><path d="M 3.078125 0 L 3.078125 -29.1875 L 7.171875 -29.1875 L 17.671875 -8.84375 L 28.09375 -29.1875 L 32.21875 -29.1875 L 32.21875 0 L 28.71875 0 L 28.71875 -22.921875 L 18.96875 -4.171875 L 16.34375 -4.171875 L 6.59375 -22.890625 L 6.59375 0 Z M 3.078125 0 "/></g></g></g><g fill="#00ffff" fill-opacity="1"><g transform="translate(110.884331, 58.331168)"><g><path d="M 3.078125 0 L 3.078125 -29.1875 L 6.59375 -29.1875 L 6.59375 0 Z M 3.078125 0 "/></g></g></g><g fill="#00ffff" fill-opacity="1"><g transform="translate(124.264323, 58.331168)"><g><path d="M 9.921875 0 L 9.921875 -26.3125 L 1.203125 -26.3125 L 1.203125 -29.1875 L 22.140625 -29.1875 L 22.140625 -26.3125 L 13.421875 -26.3125 L 13.421875 0 Z M 9.921875 0 "/></g></g></g><g fill="#00ffff" fill-opacity="1"><g transform="translate(151.314946, 58.331168)"><g><path d="M 15.890625 0.5 C 13.023438 0.5 10.554688 -0.128906 8.484375 -1.390625 C 6.410156 -2.660156 4.800781 -4.425781 3.65625 -6.6875 C 2.519531 -8.957031 1.953125 -11.59375 1.953125 -14.59375 C 1.953125 -17.5625 2.519531 -20.175781 3.65625 -22.4375 C 4.800781 -24.707031 6.410156 -26.484375 8.484375 -27.765625 C 10.554688 -29.046875 13.023438 -29.6875 15.890625 -29.6875 C 19.222656 -29.6875 21.9375 -28.882812 24.03125 -27.28125 C 26.132812 -25.6875 27.476562 -23.457031 28.0625 -20.59375 L 24.171875 -20.59375 C 23.734375 -22.394531 22.828125 -23.84375 21.453125 -24.9375 C 20.078125 -26.039062 18.222656 -26.59375 15.890625 -26.59375 C 13.796875 -26.59375 11.972656 -26.113281 10.421875 -25.15625 C 8.867188 -24.195312 7.664062 -22.820312 6.8125 -21.03125 C 5.96875 -19.238281 5.546875 -17.09375 5.546875 -14.59375 C 5.546875 -12.09375 5.96875 -9.945312 6.8125 -8.15625 C 7.664062 -6.363281 8.867188 -4.984375 10.421875 -4.015625 C 11.972656 -3.054688 13.796875 -2.578125 15.890625 -2.578125 C 18.222656 -2.578125 20.078125 -3.113281 21.453125 -4.1875 C 22.828125 -5.257812 23.734375 -6.6875 24.171875 -8.46875 L 28.0625 -8.46875 C 27.476562 -5.65625 26.132812 -3.457031 24.03125 -1.875 C 21.9375 -0.289062 19.222656 0.5 15.890625 0.5 Z M 15.890625 0.5 "/></g></g></g><g fill="#00ffff" fill-opacity="1"><g transform="translate(185.034164, 58.331168)"><g><path d="M 3.078125 0 L 3.078125 -29.1875 L 6.59375 -29.1875 L 6.59375 -16.296875 L 21.71875 -16.296875 L 21.71875 -29.1875 L 25.21875 -29.1875 L 25.21875 0 L 21.71875 0 L 21.71875 -13.421875 L 6.59375 -13.421875 L 6.59375 0 Z M 3.078125 0 "/></g></g></g><g fill="#00ffff" fill-opacity="1"><g transform="translate(217.044548, 58.331168)"><g><path d="M 3.078125 0 L 3.078125 -29.1875 L 21.140625 -29.1875 L 21.140625 -26.3125 L 6.59375 -26.3125 L 6.59375 -16.140625 L 19.890625 -16.140625 L 19.890625 -13.296875 L 6.59375 -13.296875 L 6.59375 -2.875 L 21.140625 -2.875 L 21.140625 0 Z M 3.078125 0 "/></g></g></g><g fill="#00ffff" fill-opacity="1"><g transform="translate(244.261877, 58.331168)"><g><path d="M 3.078125 0 L 3.078125 -29.1875 L 6.59375 -29.1875 L 6.59375 -2.796875 L 20.171875 -2.796875 L 20.171875 0 Z M 3.078125 0 "/></g></g></g><g fill="#00ffff" fill-opacity="1"><g transform="translate(269.853738, 58.331168)"><g><path d="M 3.078125 0 L 3.078125 -29.1875 L 6.59375 -29.1875 L 6.59375 -2.796875 L 20.171875 -2.796875 L 20.171875 0 Z M 3.078125 0 "/></g></g></g><g fill="#00ffff" fill-opacity="1"><g transform="translate(295.445599, 58.331168)"><g/></g></g><g fill="#00ffff" fill-opacity="1"><g transform="translate(310.200989, 58.331168)"><g><path d="M 3.078125 0 L 3.078125 -29.1875 L 6.59375 -29.1875 L 6.59375 -16.296875 L 21.71875 -16.296875 L 21.71875 -29.1875 L 25.21875 -29.1875 L 25.21875 0 L 21.71875 0 L 21.71875 -13.421875 L 6.59375 -13.421875 L 6.59375 0 Z M 3.078125 0 "/></g></g></g><g fill="#00ffff" fill-opacity="1"><g transform="translate(342.211373, 58.331168)"><g><path d="M 16.34375 0.5 C 13.476562 0.5 10.96875 -0.128906 8.8125 -1.390625 C 6.664062 -2.660156 4.984375 -4.429688 3.765625 -6.703125 C 2.554688 -8.984375 1.953125 -11.613281 1.953125 -14.59375 C 1.953125 -17.5625 2.554688 -20.175781 3.765625 -22.4375 C 4.984375 -24.707031 6.664062 -26.484375 8.8125 -27.765625 C 10.96875 -29.046875 13.476562 -29.6875 16.34375 -29.6875 C 19.226562 -29.6875 21.75 -29.046875 23.90625 -27.765625 C 26.0625 -26.484375 27.734375 -24.707031 28.921875 -22.4375 C 30.117188 -20.175781 30.71875 -17.5625 30.71875 -14.59375 C 30.71875 -11.613281 30.117188 -8.984375 28.921875 -6.703125 C 27.734375 -4.429688 26.0625 -2.660156 23.90625 -1.390625 C 21.75 -0.128906 19.226562 0.5 16.34375 0.5 Z M 16.34375 -2.578125 C 18.476562 -2.578125 20.359375 -3.054688 21.984375 -4.015625 C 23.609375 -4.984375 24.875 -6.363281 25.78125 -8.15625 C 26.6875 -9.945312 27.140625 -12.09375 27.140625 -14.59375 C 27.140625 -17.09375 26.6875 -19.226562 25.78125 -21 C 24.875 -22.78125 23.609375 -24.148438 21.984375 -25.109375 C 20.359375 -26.078125 18.476562 -26.5625 16.34375 -26.5625 C 14.195312 -26.5625 12.3125 -26.078125 10.6875 -25.109375 C 9.0625 -24.148438 7.796875 -22.78125 6.890625 -21 C 5.992188 -19.226562 5.546875 -17.09375 5.546875 -14.59375 C 5.546875 -12.09375 5.992188 -9.945312 6.890625 -8.15625 C 7.796875 -6.363281 9.0625 -4.984375 10.6875 -4.015625 C 12.3125 -3.054688 14.195312 -2.578125 16.34375 -2.578125 Z M 16.34375 -2.578125 "/></g></g></g><g fill="#00ffff" fill-opacity="1"><g transform="translate(378.598031, 58.331168)"><g><path d="M 3.078125 0 L 3.078125 -29.1875 L 7.171875 -29.1875 L 17.671875 -8.84375 L 28.09375 -29.1875 L 32.21875 -29.1875 L 32.21875 0 L 28.71875 0 L 28.71875 -22.921875 L 18.96875 -4.171875 L 16.34375 -4.171875 L 6.59375 -22.890625 L 6.59375 0 Z M 3.078125 0 "/></g></g></g><g fill="#ffffff" fill-opacity="1"><g transform="translate(72.262762, 58.331168)"><g><path d="M 3.078125 0 L 3.078125 -29.1875 L 7.171875 -29.1875 L 17.671875 -8.84375 L 28.09375 -29.1875 L 32.21875 -29.1875 L 32.21875 0 L 28.71875 0 L 28.71875 -22.921875 L 18.96875 -4.171875 L 16.34375 -4.171875 L 6.59375 -22.890625 L 6.59375 0 Z M 3.078125 0 "/></g></g></g><g fill="#ffffff" fill-opacity="1"><g transform="translate(111.275188, 58.331168)"><g><path d="M 3.078125 0 L 3.078125 -29.1875 L 6.59375 -29.1875 L 6.59375 0 Z M 3.078125 0 "/></g></g></g><g fill="#ffffff" fill-opacity="1"><g transform="translate(124.65518, 58.331168)"><g><path d="M 9.921875 0 L 9.921875 -26.3125 L 1.203125 -26.3125 L 1.203125 -29.1875 L 22.140625 -29.1875 L 22.140625 -26.3125 L 13.421875 -26.3125 L 13.421875 0 Z M 9.921875 0 "/></g></g></g><g fill="#ffffff" fill-opacity="1"><g transform="translate(151.705802, 58.331168)"><g><path d="M 15.890625 0.5 C 13.023438 0.5 10.554688 -0.128906 8.484375 -1.390625 C 6.410156 -2.660156 4.800781 -4.425781 3.65625 -6.6875 C 2.519531 -8.957031 1.953125 -11.59375 1.953125 -14.59375 C 1.953125 -17.5625 2.519531 -20.175781 3.65625 -22.4375 C 4.800781 -24.707031 6.410156 -26.484375 8.484375 -27.765625 C 10.554688 -29.046875 13.023438 -29.6875 15.890625 -29.6875 C 19.222656 -29.6875 21.9375 -28.882812 24.03125 -27.28125 C 26.132812 -25.6875 27.476562 -23.457031 28.0625 -20.59375 L 24.171875 -20.59375 C 23.734375 -22.394531 22.828125 -23.84375 21.453125 -24.9375 C 20.078125 -26.039062 18.222656 -26.59375 15.890625 -26.59375 C 13.796875 -26.59375 11.972656 -26.113281 10.421875 -25.15625 C 8.867188 -24.195312 7.664062 -22.820312 6.8125 -21.03125 C 5.96875 -19.238281 5.546875 -17.09375 5.546875 -14.59375 C 5.546875 -12.09375 5.96875 -9.945312 6.8125 -8.15625 C 7.664062 -6.363281 8.867188 -4.984375 10.421875 -4.015625 C 11.972656 -3.054688 13.796875 -2.578125 15.890625 -2.578125 C 18.222656 -2.578125 20.078125 -3.113281 21.453125 -4.1875 C 22.828125 -5.257812 23.734375 -6.6875 24.171875 -8.46875 L 28.0625 -8.46875 C 27.476562 -5.65625 26.132812 -3.457031 24.03125 -1.875 C 21.9375 -0.289062 19.222656 0.5 15.890625 0.5 Z M 15.890625 0.5 "/></g></g></g><g fill="#ffffff" fill-opacity="1"><g transform="translate(185.425021, 58.331168)"><g><path d="M 3.078125 0 L 3.078125 -29.1875 L 6.59375 -29.1875 L 6.59375 -16.296875 L 21.71875 -16.296875 L 21.71875 -29.1875 L 25.21875 -29.1875 L 25.21875 0 L 21.71875 0 L 21.71875 -13.421875 L 6.59375 -13.421875 L 6.59375 0 Z M 3.078125 0 "/></g></g></g><g fill="#ffffff" fill-opacity="1"><g transform="translate(217.435405, 58.331168)"><g><path d="M 3.078125 0 L 3.078125 -29.1875 L 21.140625 -29.1875 L 21.140625 -26.3125 L 6.59375 -26.3125 L 6.59375 -16.140625 L 19.890625 -16.140625 L 19.890625 -13.296875 L 6.59375 -13.296875 L 6.59375 -2.875 L 21.140625 -2.875 L 21.140625 0 Z M 3.078125 0 "/></g></g></g><g fill="#ffffff" fill-opacity="1"><g transform="translate(244.652734, 58.331168)"><g><path d="M 3.078125 0 L 3.078125 -29.1875 L 6.59375 -29.1875 L 6.59375 -2.796875 L 20.171875 -2.796875 L 20.171875 0 Z M 3.078125 0 "/></g></g></g><g fill="#ffffff" fill-opacity="1"><g transform="translate(270.244595, 58.331168)"><g><path d="M 3.078125 0 L 3.078125 -29.1875 L 6.59375 -29.1875 L 6.59375 -2.796875 L 20.171875 -2.796875 L 20.171875 0 Z M 3.078125 0 "/></g></g></g><g fill="#ffffff" fill-opacity="1"><g transform="translate(295.836456, 58.331168)"><g/></g></g><g fill="#ffffff" fill-opacity="1"><g transform="translate(310.591846, 58.331168)"><g><path d="M 3.078125 0 L 3.078125 -29.1875 L 6.59375 -29.1875 L 6.59375 -16.296875 L 21.71875 -16.296875 L 21.71875 -29.1875 L 25.21875 -29.1875 L 25.21875 0 L 21.71875 0 L 21.71875 -13.421875 L 6.59375 -13.421875 L 6.59375 0 Z M 3.078125 0 "/></g></g></g><g fill="#ffffff" fill-opacity="1"><g transform="translate(342.60223, 58.331168)"><g><path d="M 16.34375 0.5 C 13.476562 0.5 10.96875 -0.128906 8.8125 -1.390625 C 6.664062 -2.660156 4.984375 -4.429688 3.765625 -6.703125 C 2.554688 -8.984375 1.953125 -11.613281 1.953125 -14.59375 C 1.953125 -17.5625 2.554688 -20.175781 3.765625 -22.4375 C 4.984375 -24.707031 6.664062 -26.484375 8.8125 -27.765625 C 10.96875 -29.046875 13.476562 -29.6875 16.34375 -29.6875 C 19.226562 -29.6875 21.75 -29.046875 23.90625 -27.765625 C 26.0625 -26.484375 27.734375 -24.707031 28.921875 -22.4375 C 30.117188 -20.175781 30.71875 -17.5625 30.71875 -14.59375 C 30.71875 -11.613281 30.117188 -8.984375 28.921875 -6.703125 C 27.734375 -4.429688 26.0625 -2.660156 23.90625 -1.390625 C 21.75 -0.128906 19.226562 0.5 16.34375 0.5 Z M 16.34375 -2.578125 C 18.476562 -2.578125 20.359375 -3.054688 21.984375 -4.015625 C 23.609375 -4.984375 24.875 -6.363281 25.78125 -8.15625 C 26.6875 -9.945312 27.140625 -12.09375 27.140625 -14.59375 C 27.140625 -17.09375 26.6875 -19.226562 25.78125 -21 C 24.875 -22.78125 23.609375 -24.148438 21.984375 -25.109375 C 20.359375 -26.078125 18.476562 -26.5625 16.34375 -26.5625 C 14.195312 -26.5625 12.3125 -26.078125 10.6875 -25.109375 C 9.0625 -24.148438 7.796875 -22.78125 6.890625 -21 C 5.992188 -19.226562 5.546875 -17.09375 5.546875 -14.59375 C 5.546875 -12.09375 5.992188 -9.945312 6.890625 -8.15625 C 7.796875 -6.363281 9.0625 -4.984375 10.6875 -4.015625 C 12.3125 -3.054688 14.195312 -2.578125 16.34375 -2.578125 Z M 16.34375 -2.578125 "/></g></g></g><g fill="#ffffff" fill-opacity="1"><g transform="translate(378.988888, 58.331168)"><g><path d="M 3.078125 0 L 3.078125 -29.1875 L 7.171875 -29.1875 L 17.671875 -8.84375 L 28.09375 -29.1875 L 32.21875 -29.1875 L 32.21875 0 L 28.71875 0 L 28.71875 -22.921875 L 18.96875 -4.171875 L 16.34375 -4.171875 L 6.59375 -22.890625 L 6.59375 0 Z M 3.078125 0 "/></g></g></g></svg>